<svg width="16" height="17" viewBox="0 0 16 17" fill="none" xmlns="http://www.w3.org/2000/svg">
<g id="Sparkle">
<path id="Vector" d="M12.9996 9.5C13.0009 9.70386 12.9389 9.90311 12.8223 10.0703C12.7057 10.2375 12.5401 10.3645 12.3484 10.4338L9.12461 11.625L7.93711 14.8512C7.86679 15.0423 7.73956 15.2072 7.57259 15.3236C7.40561 15.4401 7.20694 15.5025 7.00336 15.5025C6.79979 15.5025 6.60111 15.4401 6.43414 15.3236C6.26716 15.2072 6.13993 15.0423 6.06961 14.8512L4.87461 11.625L1.64836 10.4375C1.45732 10.3672 1.29244 10.2399 1.17598 10.073C1.05951 9.906 0.99707 9.70733 0.99707 9.50375C0.99707 9.30017 1.05951 9.1015 1.17598 8.93452C1.29244 8.76755 1.45732 8.64032 1.64836 8.57L4.87461 7.375L6.06211 4.14875C6.13243 3.95771 6.25966 3.79283 6.42664 3.67637C6.59361 3.5599 6.79229 3.49746 6.99586 3.49746C7.19944 3.49746 7.39811 3.5599 7.56509 3.67637C7.73206 3.79283 7.85929 3.95771 7.92961 4.14875L9.12461 7.375L12.3509 8.5625C12.5427 8.63237 12.7082 8.76008 12.8244 8.92801C12.9406 9.09594 13.0018 9.2958 12.9996 9.5ZM9.49961 3.5H10.4996V4.5C10.4996 4.63261 10.5523 4.75979 10.6461 4.85355C10.7398 4.94732 10.867 5 10.9996 5C11.1322 5 11.2594 4.94732 11.3532 4.85355C11.4469 4.75979 11.4996 4.63261 11.4996 4.5V3.5H12.4996C12.6322 3.5 12.7594 3.44732 12.8532 3.35355C12.9469 3.25979 12.9996 3.13261 12.9996 3C12.9996 2.86739 12.9469 2.74021 12.8532 2.64645C12.7594 2.55268 12.6322 2.5 12.4996 2.5H11.4996V1.5C11.4996 1.36739 11.4469 1.24021 11.3532 1.14645C11.2594 1.05268 11.1322 1 10.9996 1C10.867 1 10.7398 1.05268 10.6461 1.14645C10.5523 1.24021 10.4996 1.36739 10.4996 1.5V2.5H9.49961C9.367 2.5 9.23983 2.55268 9.14606 2.64645C9.05229 2.74021 8.99961 2.86739 8.99961 3C8.99961 3.13261 9.05229 3.25979 9.14606 3.35355C9.23983 3.44732 9.367 3.5 9.49961 3.5ZM14.9996 5.5H14.4996V5C14.4996 4.86739 14.4469 4.74021 14.3532 4.64645C14.2594 4.55268 14.1322 4.5 13.9996 4.5C13.867 4.5 13.7398 4.55268 13.6461 4.64645C13.5523 4.74021 13.4996 4.86739 13.4996 5V5.5H12.9996C12.867 5.5 12.7398 5.55268 12.6461 5.64645C12.5523 5.74021 12.4996 5.86739 12.4996 6C12.4996 6.13261 12.5523 6.25979 12.6461 6.35355C12.7398 6.44732 12.867 6.5 12.9996 6.5H13.4996V7C13.4996 7.13261 13.5523 7.25979 13.6461 7.35355C13.7398 7.44732 13.867 7.5 13.9996 7.5C14.1322 7.5 14.2594 7.44732 14.3532 7.35355C14.4469 7.25979 14.4996 7.13261 14.4996 7V6.5H14.9996C15.1322 6.5 15.2594 6.44732 15.3532 6.35355C15.4469 6.25979 15.4996 6.13261 15.4996 6C15.4996 5.86739 15.4469 5.74021 15.3532 5.64645C15.2594 5.55268 15.1322 5.5 14.9996 5.5Z" fill="white"/>
</g>
</svg>
