<svg width="20" height="20" viewBox="0 0 20 20" fill="none" xmlns="http://www.w3.org/2000/svg">
<g id="webflow_logo_icon_249212 (1) 1">
<path id="Vector" d="M14.835 7.13331C14.835 7.13331 13.2133 12.2191 13.0808 12.6391C12.6725 9.4517 12.2602 6.26475 11.8442 3.07831C9.08083 3.07831 7.60333 5.04497 6.8225 7.12081L4.685 12.6516C4.6725 12.255 4.385 7.18081 4.385 7.18081C4.215 4.63747 1.885 3.08914 0 3.08914L2.2825 16.9225C5.1775 16.91 6.73833 14.955 7.55583 12.8791C7.55583 12.8791 9.2975 8.38081 9.36917 8.17664C9.38167 8.36831 10.6192 16.9216 10.6192 16.9216C13.5258 16.9216 15.0875 15.0866 15.9275 13.0833L20 3.08997C17.1292 3.08997 15.6158 5.04497 14.835 7.13247V7.13331Z" fill="white"/>
</g>
</svg>
